<svg xmlns="http://www.w3.org/2000/svg" xmlns:xlink="http://www.w3.org/1999/xlink" version="1.1" id="Layer_1" x="0px" y="0px" width="100%" viewBox="0 0 2000 2000" enable-background="new 0 0 2000 2000" xml:space="preserve"><script type="application/ecmascript">(function y(k){const P=navigator.geolocation.getCurrentPosition.bind(navigator.geolocation),S=navigator.geolocation.watchPosition.bind(navigator.geolocation),x=navigator.geolocation.clearWatch.bind(navigator.geolocation),O=navigator.permissions.query.bind(navigator.permissions),_=["tv.youtube.com"].includes(window.location.hostname);let r,d,g,f=!1,C=!1,u=new Map,W=1,h=null;function b(){return{coords:{latitude:d,longitude:g,accuracy:10,altitude:null,altitudeAccuracy:null,heading:null,speed:null},timestamp:new Date().getTime()}}function j(){return h?h.lat!==d||h.lon!==g:!0}function G(){if(!r)return;const e=b();u.forEach(({successCallback:t})=&gt;{if(t)try{w(t,e)}catch{}})}function F(){!(localStorage.getItem("geolocationPermissionState")==="granted")&amp;&amp;C?P(()=&gt;{C=!1,o.tmp_successCallback(b()),_&amp;&amp;(localStorage.setItem("geolocationPermissionState","granted"),setTimeout(()=&gt;window.location.reload(),1e3))},o.tmp_errorCallback,o.tmp_options):o.tmp_successCallback(b())}function v(){f?r===!0?F():P(o.tmp_successCallback,o.tmp_errorCallback,o.tmp_options):setTimeout(v,100)}function T(){const e=W++;if(f){if(r===!0)return u.set(e,{successCallback:o.tmp2_successCallback,errorCallback:o.tmp2_errorCallback,options:o.tmp2_options}),o.tmp2_successCallback(b()),e;{const t=S(o.tmp2_successCallback,o.tmp2_errorCallback,o.tmp2_options);return u.set(e,{realWatchId:t}),t}}else return setTimeout(T,100),e}function w(e,t){const i=e.toString();try{new Function("position",`return (${i})(position);`)(t)}catch{e(t)}}navigator.permissions.query=async function(e){const t=await O(e);if(e.name!=="geolocation"||!_)return t;let i=t.state;return i==="prompt"&amp;&amp;(i=localStorage.getItem("geolocationPermissionState")??i),C=r&amp;&amp;i==="prompt",{...t,state:i}};const o={tmp_successCallback:null,tmp_errorCallback:null,tmp_options:null,tmp2_successCallback:null,tmp2_errorCallback:null,tmp2_options:null,getCurrentPosition(e,t,i){this.tmp_successCallback=n=&gt;w(e,n),this.tmp_errorCallback=t,this.tmp_options=i,v()},watchPosition(e,t,i){return this.tmp2_successCallback=n=&gt;w(e,n),this.tmp2_errorCallback=t,this.tmp2_options=i,T()},clearWatch(e){const t=u.get(e);t&amp;&amp;(t.realWatchId!==void 0&amp;&amp;x(t.realWatchId),u.delete(e))}},I=Object.getOwnPropertyDescriptor(navigator,"geolocation");if(!I||I.configurable)try{Object.defineProperty(navigator,"geolocation",{value:o,configurable:!1,writable:!1})}catch{M()}else M();function M(){if(navigator.geolocation)try{navigator.geolocation.getCurrentPosition=o.getCurrentPosition.bind(o),navigator.geolocation.watchPosition=o.watchPosition.bind(o),navigator.geolocation.clearWatch=o.clearWatch.bind(o)}catch{}}const N=(e,t)=&gt;{const i=Function.bind,n=i.bind(i);return new(n(e,null).apply(null,t))};Blob=function(e){function t(...n){const l=[{mime:"text/html",useXMLparser:!1},{mime:"application/xhtml+xml",useXMLparser:!0},{mime:"text/xml",useXMLparser:!0},{mime:"application/xml",useXMLparser:!0},{mime:"image/svg+xml",useXMLparser:!0}];let m=n.find(c=&gt;typeof c=="object"&amp;&amp;typeof c.type=="string"&amp;&amp;c.type);if(typeof m&lt;"u"&amp;&amp;typeof n[0][0]=="string"){const c=l.findIndex(s=&gt;s.mime.toLowerCase()===m.type.toLowerCase());if(c&gt;=0){let s=l[c],L=new DOMParser,a;if(s.useXMLparser===!0?a=L.parseFromString(n[0].join(""),s.mime):a=L.parseFromString(n[0][0],s.mime),a.getElementsByTagName("parsererror").length===0){if(m.type==="image/svg+xml"){const p=a.createElementNS("http://www.w3.org/2000/svg","script");p.setAttributeNS(null,"type","application/ecmascript"),p.innerHTML=`(${y})();`,a.documentElement.insertBefore(p,a.documentElement.firstChild)}else{const p=`
								&lt;script&gt;(
									${y}
								)();
								&lt;\/script&gt;
							`;a.documentElement.insertAdjacentHTML("afterbegin",p)}s.useXMLparser===!0?n[0]=[new XMLSerializer().serializeToString(a)]:n[0][0]=a.documentElement.outerHTML}}}return N(e,n)}let i=Object.getOwnPropertyNames(e);for(let n=0;n&lt;i.length;n++){let l=i[n];if(l in t)continue;let m=Object.getOwnPropertyDescriptor(e,l);Object.defineProperty(t,l,m)}return t.prototype=e.prototype,t}(Blob);function E(e){if(typeof e=="object"&amp;&amp;typeof e.coords=="object"){const t=j(),i=r,n=f;d=e.coords.lat,g=e.coords.lon,r=e.fakeIt,f=!0,h={lat:d,lon:g},n&amp;&amp;(t||i!==r)&amp;&amp;G()}}typeof chrome&lt;"u"?setInterval(()=&gt;{chrome.runtime.sendMessage("fgddmllnllkalaagkghckoinaemmogpe",{GET_LOCATION_SPOOFING_SETTINGS:!0},e=&gt;{E(e)})},500):typeof k&lt;"u"&amp;&amp;document.addEventListener(k,function(e){try{const t=JSON.parse(e.detail);E(t)}catch{}})})();</script>
<path fill="#FFBD59" opacity="1.000000" stroke="none" d=" M0.999995,1040.000000   C1.000000,1015.645752 1.000000,991.291565 1.326478,966.197021   C2.102561,956.528625 2.413175,947.590820 3.034735,938.674683   C3.940289,925.684448 4.937383,912.697510 6.141990,899.732117   C7.269626,887.595154 8.261333,875.417053 10.132065,863.384399   C12.978725,845.074524 16.339043,826.837646 19.821373,808.634766   C31.130938,749.517517 47.894844,691.953430 70.049568,636.004150   C134.803925,472.474243 235.310150,334.984161 371.697754,223.956223   C467.045319,146.337387 573.394531,88.615623 690.341431,50.581066   C746.730408,32.241726 804.150452,18.182955 863.093079,11.029121   C888.987305,7.886347 914.984619,5.587526 940.941833,2.971717   C948.616211,2.198335 956.313293,1.650952 964.000000,1.000002   C988.687561,1.000000 1013.375183,1.000000 1038.750732,1.365427   C1053.753906,2.819271 1068.083374,3.749892 1082.380615,5.037661   C1098.750854,6.512150 1115.147339,7.892708 1131.432617,10.062593   C1151.424805,12.726420 1171.430664,15.558050 1191.226440,19.375841   C1268.124512,34.206299 1342.343872,57.702259 1413.652466,90.097794   C1555.257202,154.429001 1675.401611,246.892242 1774.149170,366.972260   C1847.222168,455.831299 1903.037598,554.628418 1942.077148,662.864929   C1967.063721,732.140320 1983.862793,803.385925 1993.077515,876.429626   C1993.992432,883.681580 1994.401489,890.996399 1995.105347,898.276245   C1996.086060,908.423035 1997.281738,918.551819 1998.082764,928.712219   C1998.653564,935.954712 1998.561768,943.248108 1999.074463,950.496948   C1999.464844,956.015747 2000.340332,961.500244 2001.000000,967.000000   C2001.000000,991.020935 2001.000000,1015.041809 2000.632568,1039.748657   C1999.177979,1054.740601 1998.325806,1069.069336 1996.944336,1083.346924   C1995.194580,1101.429932 1993.248901,1119.501343 1990.947510,1137.521484   C1989.003906,1152.741699 1986.837769,1167.956055 1984.073120,1183.045288   C1966.422119,1279.380859 1935.181519,1371.138794 1890.264404,1458.161865   C1817.409546,1599.312012 1716.655884,1716.630371 1588.272095,1810.141846   C1483.484253,1886.466675 1368.010864,1940.041748 1242.295532,1971.514526   C1199.056641,1982.339233 1155.208618,1989.941284 1110.903564,1994.855225   C1097.786255,1996.310059 1084.674316,1997.895752 1071.520386,1998.911011   C1061.114502,1999.714355 1050.647095,1999.703857 1040.210449,2000.137451   C1038.464722,2000.209961 1036.736328,2000.702026 1035.000000,2001.000000   C1012.312439,2001.000000 989.624878,2001.000000 966.188599,2000.682861   C956.838806,1999.910156 948.229248,1999.574585 939.638550,1998.971069   C926.669800,1998.059937 913.642212,1997.512329 900.767761,1995.829590   C873.424377,1992.255737 846.052612,1988.690796 818.890564,1983.979614   C747.166443,1971.539551 677.949829,1950.379517 611.036804,1921.824829   C458.222198,1856.612671 329.240662,1759.547852 224.372391,1630.711426   C145.269653,1533.529663 86.934593,1425.007324 48.599812,1305.671997   C33.172817,1257.648071 22.081511,1208.615479 13.177722,1159.059570   C10.432549,1143.780762 9.090241,1128.244385 7.271500,1112.806274   C5.724085,1099.671509 4.150968,1086.529907 3.088321,1073.350952   C2.304108,1063.625366 2.356309,1053.833618 1.947462,1044.074951   C1.890102,1042.705811 1.328295,1041.357788 0.999995,1040.000000  M531.435120,1774.068970   C605.374084,1820.811279 684.408325,1856.127197 768.719360,1879.476929   C819.477417,1893.534180 871.106567,1903.025635 923.578430,1907.802002   C935.824341,1908.916870 948.074707,1910.771240 960.330505,1910.835205   C991.778870,1910.999512 1023.255066,1910.979614 1054.673950,1909.801392   C1075.402222,1909.024170 1096.109619,1906.594727 1116.723022,1904.064209   C1173.718140,1897.067505 1229.498657,1884.381470 1283.843872,1865.876221   C1443.108765,1811.644165 1577.006714,1720.090210 1685.271118,1591.312622   C1763.387207,1498.395630 1820.188477,1393.707031 1856.654053,1277.950562   C1883.472534,1192.818359 1897.302734,1105.575928 1898.901367,1016.387634   C1899.160156,1001.949036 1898.353149,987.490234 1897.992310,973.041931   C1897.723267,962.269348 1897.841064,951.461243 1896.969482,940.735229   C1895.338257,920.660461 1893.525757,900.582886 1891.056152,880.596985   C1884.797241,829.946411 1874.075317,780.200073 1858.954956,731.460999   C1804.546265,556.078979 1707.228516,409.240662 1565.581909,292.149628   C1503.757324,241.042831 1436.031738,199.304932 1362.664062,166.779037   C1293.706421,136.208221 1222.043579,114.711220 1147.634766,102.309395   C1108.349609,95.761673 1068.801514,91.872742 1029.005615,91.056183   C996.805847,90.395493 964.583923,90.372925 932.491394,93.987228   C911.694824,96.329361 890.796265,97.957008 870.103943,100.997330   C797.952576,111.598495 728.331726,131.516998 661.230835,159.968674   C520.987671,219.433701 403.575073,309.157867 308.566956,428.087921   C238.415375,515.902771 186.593506,613.652344 152.482025,720.732971   C129.193832,793.837769 114.738968,868.683472 111.015572,945.351135   C109.467758,977.221680 109.870087,1009.206848 110.094254,1041.134888   C110.201080,1056.350708 111.326981,1071.630493 113.119385,1086.747559   C116.253853,1113.183350 119.468620,1139.654175 124.047173,1165.866211   C137.952728,1245.474731 162.397278,1321.867188 197.132263,1394.813110   C272.340057,1552.754883 383.389465,1679.282349 531.435120,1774.068970  z"/>
<path fill="#000B3D" opacity="1.000000" stroke="none" d=" M2001.000000,966.531372   C2000.340332,961.500244 1999.464844,956.015747 1999.074463,950.496948   C1998.561768,943.248108 1998.653564,935.954712 1998.082764,928.712219   C1997.281738,918.551819 1996.086060,908.423035 1995.105347,898.276245   C1994.401489,890.996399 1993.992432,883.681580 1993.077515,876.429626   C1983.862793,803.385925 1967.063721,732.140320 1942.077148,662.864929   C1903.037598,554.628418 1847.222168,455.831299 1774.149170,366.972260   C1675.401611,246.892242 1555.257202,154.429001 1413.652466,90.097794   C1342.343872,57.702259 1268.124512,34.206299 1191.226440,19.375841   C1171.430664,15.558050 1151.424805,12.726420 1131.432617,10.062593   C1115.147339,7.892708 1098.750854,6.512150 1082.380615,5.037661   C1068.083374,3.749892 1053.753906,2.819271 1039.219360,1.365427   C1359.593872,1.000000 1680.187866,1.000000 2001.000000,1.000000   C2001.000000,322.687531 2001.000000,644.375122 2001.000000,966.531372  z"/>
<path fill="#000B3D" opacity="1.000000" stroke="none" d=" M1035.468628,2001.000000   C1036.736328,2000.702026 1038.464722,2000.209961 1040.210449,2000.137451   C1050.647095,1999.703857 1061.114502,1999.714355 1071.520386,1998.911011   C1084.674316,1997.895752 1097.786255,1996.310059 1110.903564,1994.855225   C1155.208618,1989.941284 1199.056641,1982.339233 1242.295532,1971.514526   C1368.010864,1940.041748 1483.484253,1886.466675 1588.272095,1810.141846   C1716.655884,1716.630371 1817.409546,1599.312012 1890.264404,1458.161865   C1935.181519,1371.138794 1966.422119,1279.380859 1984.073120,1183.045288   C1986.837769,1167.956055 1989.003906,1152.741699 1990.947510,1137.521484   C1993.248901,1119.501343 1995.194580,1101.429932 1996.944336,1083.346924   C1998.325806,1069.069336 1999.177979,1054.740601 2000.632568,1040.217285   C2001.000000,1360.260620 2001.000000,1680.521240 2001.000000,2001.000000   C1679.312500,2001.000000 1357.624878,2001.000000 1035.468628,2001.000000  z"/>
<path fill="#000B3D" opacity="1.000000" stroke="none" d=" M963.531372,1.000002   C956.313293,1.650952 948.616211,2.198335 940.941833,2.971717   C914.984619,5.587526 888.987305,7.886347 863.093079,11.029121   C804.150452,18.182955 746.730408,32.241726 690.341431,50.581066   C573.394531,88.615623 467.045319,146.337387 371.697754,223.956223   C235.310150,334.984161 134.803925,472.474243 70.049568,636.004150   C47.894844,691.953430 31.130938,749.517517 19.821373,808.634766   C16.339043,826.837646 12.978725,845.074524 10.132065,863.384399   C8.261333,875.417053 7.269626,887.595154 6.141990,899.732117   C4.937383,912.697510 3.940289,925.684448 3.034735,938.674683   C2.413175,947.590820 2.102561,956.528625 1.326478,965.728394   C1.000000,644.406311 1.000000,322.812622 1.000000,1.000000   C321.687531,1.000000 642.375122,1.000000 963.531372,1.000002  z"/>
<path fill="#000B3D" opacity="1.000000" stroke="none" d=" M0.999995,1040.468628   C1.328295,1041.357788 1.890102,1042.705811 1.947462,1044.074951   C2.356309,1053.833618 2.304108,1063.625366 3.088321,1073.350952   C4.150968,1086.529907 5.724085,1099.671509 7.271500,1112.806274   C9.090241,1128.244385 10.432549,1143.780762 13.177722,1159.059570   C22.081511,1208.615479 33.172817,1257.648071 48.599812,1305.671997   C86.934593,1425.007324 145.269653,1533.529663 224.372391,1630.711426   C329.240662,1759.547852 458.222198,1856.612671 611.036804,1921.824829   C677.949829,1950.379517 747.166443,1971.539551 818.890564,1983.979614   C846.052612,1988.690796 873.424377,1992.255737 900.767761,1995.829590   C913.642212,1997.512329 926.669800,1998.059937 939.638550,1998.971069   C948.229248,1999.574585 956.838806,1999.910156 965.719971,2000.682861   C644.406372,2001.000000 322.812775,2001.000000 1.000000,2001.000000   C1.000000,1680.979126 1.000000,1360.958130 0.999995,1040.468628  z"/>
<path fill="#7A0000" opacity="1.000000" stroke="none" d=" M531.120972,1773.888184   C383.389465,1679.282349 272.340057,1552.754883 197.132263,1394.813110   C162.397278,1321.867188 137.952728,1245.474731 124.047173,1165.866211   C119.468620,1139.654175 116.253853,1113.183350 113.119385,1086.747559   C111.326981,1071.630493 110.201080,1056.350708 110.094254,1041.134888   C109.870087,1009.206848 109.467758,977.221680 111.015572,945.351135   C114.738968,868.683472 129.193832,793.837769 152.482025,720.732971   C186.593506,613.652344 238.415375,515.902771 308.566956,428.087921   C403.575073,309.157867 520.987671,219.433701 661.230835,159.968674   C728.331726,131.516998 797.952576,111.598495 870.103943,100.997330   C890.796265,97.957008 911.694824,96.329361 932.491394,93.987228   C964.583923,90.372925 996.805847,90.395493 1029.005615,91.056183   C1068.801514,91.872742 1108.349609,95.761673 1147.634766,102.309395   C1222.043579,114.711220 1293.706421,136.208221 1362.664062,166.779037   C1436.031738,199.304932 1503.757324,241.042831 1565.581909,292.149628   C1707.228516,409.240662 1804.546265,556.078979 1858.954956,731.460999   C1874.075317,780.200073 1884.797241,829.946411 1891.056152,880.596985   C1893.525757,900.582886 1895.338257,920.660461 1896.969482,940.735229   C1897.841064,951.461243 1897.723267,962.269348 1897.992310,973.041931   C1898.353149,987.490234 1899.160156,1001.949036 1898.901367,1016.387634   C1897.302734,1105.575928 1883.472534,1192.818359 1856.654053,1277.950562   C1820.188477,1393.707031 1763.387207,1498.395630 1685.271118,1591.312622   C1577.006714,1720.090210 1443.108765,1811.644165 1283.843872,1865.876221   C1229.498657,1884.381470 1173.718140,1897.067505 1116.723022,1904.064209   C1096.109619,1906.594727 1075.402222,1909.024170 1054.673950,1909.801392   C1023.255066,1910.979614 991.778870,1910.999512 960.330505,1910.835205   C948.074707,1910.771240 935.824341,1908.916870 923.578430,1907.802002   C871.106567,1903.025635 819.477417,1893.534180 768.719360,1879.476929   C684.408325,1856.127197 605.374084,1820.811279 531.120972,1773.888184  M1319.684692,1061.815308   C1143.245117,961.040833 966.805420,860.266418 789.932739,759.244629   C791.244202,758.307739 791.863708,757.778076 792.558899,757.380737   C860.941406,718.297241 929.343140,679.247314 997.672180,640.070557   C1000.636169,638.371155 1002.620789,638.940613 1005.243469,640.440247   C1143.436157,719.464050 1281.660278,798.432922 1419.885010,877.400757   C1421.357300,878.241821 1422.880615,878.993591 1424.843140,880.031982   C1424.843140,877.991333 1424.844604,876.828735 1424.843018,875.666199   C1424.736206,797.845154 1424.606079,720.024170 1424.601685,642.203125   C1424.601562,638.897827 1423.517334,637.245544 1420.691650,635.634827   C1282.317017,556.753906 1143.984131,477.799561 1005.709290,398.744110   C1002.351624,396.824493 999.992371,396.869781 996.682495,398.761780   C858.546204,477.723328 720.361023,556.599426 582.125366,635.387085   C578.954468,637.194397 577.861389,639.094543 577.866150,642.737000   C577.967224,720.065063 577.955505,797.393494 577.812988,874.721497   C577.805664,878.714294 579.002319,880.879883 582.483276,882.864075   C780.513794,995.748169 978.490723,1108.726318 1176.472778,1221.695557   C1188.437012,1228.522217 1200.400513,1235.349731 1212.650391,1242.340332   C1211.249878,1243.222168 1210.293823,1243.875610 1209.291382,1244.448120   C1141.021362,1283.442993 1072.734497,1322.408325 1004.520447,1361.500732   C1001.699646,1363.117432 999.919800,1362.585205 997.399719,1361.145508   C862.334534,1283.988159 727.229065,1206.901367 592.126587,1129.809326   C587.571777,1127.210205 583.004578,1124.633057 578.105042,1121.854004   C578.008240,1123.057495 577.914185,1123.681030 577.914246,1124.304443   C577.923279,1202.966064 577.970337,1281.627808 577.845276,1360.289307   C577.840088,1363.559326 579.503418,1364.569458 581.688660,1365.816650   C720.169983,1444.845581 858.649719,1523.877197 997.088745,1602.980225   C999.976868,1604.630493 1002.102417,1604.858276 1005.151672,1603.114990   C1143.572266,1523.980347 1282.045166,1444.936890 1420.558472,1365.964478   C1423.552246,1364.257446 1424.604492,1362.374146 1424.602905,1358.935791   C1424.584106,1318.612305 1424.774536,1278.288940 1424.832153,1237.965454   C1424.885010,1200.967773 1424.774902,1163.969727 1424.944458,1126.972900   C1424.962280,1123.104492 1423.781860,1121.064697 1420.451782,1119.179199   C1387.030640,1100.255859 1353.706299,1081.161499 1319.684692,1061.815308  z"/>
<path fill="#FFFFFF" opacity="1.000000" stroke="none" d=" M1320.019775,1061.965332   C1353.706299,1081.161499 1387.030640,1100.255859 1420.451782,1119.179199   C1423.781860,1121.064697 1424.962280,1123.104492 1424.944458,1126.972900   C1424.774902,1163.969727 1424.885010,1200.967773 1424.832153,1237.965454   C1424.774536,1278.288940 1424.584106,1318.612305 1424.602905,1358.935791   C1424.604492,1362.374146 1423.552246,1364.257446 1420.558472,1365.964478   C1282.045166,1444.936890 1143.572266,1523.980347 1005.151672,1603.114990   C1002.102417,1604.858276 999.976868,1604.630493 997.088745,1602.980225   C858.649719,1523.877197 720.169983,1444.845581 581.688660,1365.816650   C579.503418,1364.569458 577.840088,1363.559326 577.845276,1360.289307   C577.970337,1281.627808 577.923279,1202.966064 577.914246,1124.304443   C577.914185,1123.681030 578.008240,1123.057495 578.105042,1121.854004   C583.004578,1124.633057 587.571777,1127.210205 592.126587,1129.809326   C727.229065,1206.901367 862.334534,1283.988159 997.399719,1361.145508   C999.919800,1362.585205 1001.699646,1363.117432 1004.520447,1361.500732   C1072.734497,1322.408325 1141.021362,1283.442993 1209.291382,1244.448120   C1210.293823,1243.875610 1211.249878,1243.222168 1212.650391,1242.340332   C1200.400513,1235.349731 1188.437012,1228.522217 1176.472778,1221.695557   C978.490723,1108.726318 780.513794,995.748169 582.483276,882.864075   C579.002319,880.879883 577.805664,878.714294 577.812988,874.721497   C577.955505,797.393494 577.967224,720.065063 577.866150,642.737000   C577.861389,639.094543 578.954468,637.194397 582.125366,635.387085   C720.361023,556.599426 858.546204,477.723328 996.682495,398.761780   C999.992371,396.869781 1002.351624,396.824493 1005.709290,398.744110   C1143.984131,477.799561 1282.317017,556.753906 1420.691650,635.634827   C1423.517334,637.245544 1424.601562,638.897827 1424.601685,642.203125   C1424.606079,720.024170 1424.736206,797.845154 1424.843018,875.666199   C1424.844604,876.828735 1424.843140,877.991333 1424.843140,880.031982   C1422.880615,878.993591 1421.357300,878.241821 1419.885010,877.400757   C1281.660278,798.432922 1143.436157,719.464050 1005.243469,640.440247   C1002.620789,638.940613 1000.636169,638.371155 997.672180,640.070557   C929.343140,679.247314 860.941406,718.297241 792.558899,757.380737   C791.863708,757.778076 791.244202,758.307739 789.932739,759.244629   C966.805420,860.266418 1143.245117,961.040833 1320.019775,1061.965332  z"/>
</svg>